<svg id="color" enable-background="new 0 0 24 24" height="512" viewBox="0 0 24 24" width="512" xmlns="http://www.w3.org/2000/svg"><path d="m14.062 9.937c-.391-.391-.391-1.024 0-1.414l4.461-4.46c.391-.391 1.023-.391 1.414 0s.391 1.024 0 1.414l-4.461 4.46c-.39.391-1.023.391-1.414 0z" fill="#607d8b"/><path d="m19.937 4.063-5.875 5.874c.195.195.451.293.707.293s.512-.098.707-.293l4.461-4.46c.391-.39.391-1.023 0-1.414z" fill="#546d79"/><path d="m13.123 20.004c-.367-.413-.33-1.044.082-1.412l5.26-4.68c.412-.367 1.045-.331 1.412.083.367.413.33 1.044-.082 1.412l-5.26 4.68c-.412.367-1.045.331-1.412-.083z" fill="#607d8b"/><path d="m19.877 13.996-6.754 6.009c.197.223.472.336.747.336.237 0 .475-.084.665-.253l5.26-4.68c.412-.368.449-1 .082-1.412z" fill="#546d79"/><path d="m4.169 18.064c-.345-.431-.274-1.061.156-1.405l6.1-4.88c.433-.346 1.061-.275 1.406.156s.274 1.061-.156 1.405l-6.1 4.88c-.432.346-1.061.275-1.406-.156z" fill="#607d8b"/><path d="m11.831 11.936-7.662 6.129c.198.247.488.375.782.375.219 0 .439-.072.624-.219l6.1-4.88c.43-.345.501-.974.156-1.405z" fill="#546d79"/><path d="m9.839 19.395-5.381-8.74c-.289-.47-.143-1.086.327-1.376.469-.291 1.087-.144 1.376.327l5.381 8.74c.289.47.143 1.086-.327 1.376-.467.288-1.085.146-1.376-.327z" fill="#607d8b"/><path d="m4.785 9.278c-.47.29-.616.906-.327 1.376l5.381 8.74c.189.308.518.476.852.476.179 0 .361-.048.524-.149z" fill="#546d79"/><g fill="#2196f3"><path d="m3 22c-1.654 0-3-1.346-3-3s1.346-3 3-3 3 1.346 3 3-1.346 3-3 3z"/><path d="m13 14c-1.654 0-3-1.346-3-3s1.346-3 3-3 3 1.346 3 3-1.346 3-3 3z"/><path d="m4 11c-1.654 0-3-1.346-3-3s1.346-3 3-3 3 1.346 3 3-1.346 3-3 3z"/><path d="m21 16c-1.654 0-3-1.346-3-3s1.346-3 3-3 3 1.346 3 3-1.346 3-3 3z"/></g><path d="m21 10c-1.654 0-3 1.346-3 3s1.346 3 3 3z" fill="#1d83d4"/><path d="m13 8c-1.654 0-3 1.346-3 3s1.346 3 3 3z" fill="#1d83d4"/><path d="m4 5c-1.654 0-3 1.346-3 3s1.346 3 3 3z" fill="#1d83d4"/><path d="m3 16c-1.654 0-3 1.346-3 3s1.346 3 3 3z" fill="#1d83d4"/><path d="m12 24c-1.654 0-3-1.346-3-3s1.346-3 3-3 3 1.346 3 3-1.346 3-3 3z" fill="#2196f3"/><path d="m21 6c-1.654 0-3-1.346-3-3s1.346-3 3-3 3 1.346 3 3-1.346 3-3 3z" fill="#2196f3"/><path d="m21 0c-1.654 0-3 1.346-3 3s1.346 3 3 3z" fill="#1d83d4"/><path d="m12 18c-1.654 0-3 1.346-3 3s1.346 3 3 3z" fill="#1d83d4"/></svg>